<?xml version="1.0" encoding="utf-8"?>
<!-- Generator: Adobe Illustrator 23.0.1, SVG Export Plug-In . SVG Version: 6.00 Build 0)  -->
<svg version="1.1" id="Layer_1" xmlns="http://www.w3.org/2000/svg" xmlns:xlink="http://www.w3.org/1999/xlink" x="0px" y="0px"
	 viewBox="0 0 400 400" style="enable-background:new 0 0 400 400;" xml:space="preserve">
<style type="text/css">
	.st0{fill:#FFFFFF;}
</style>
<path class="st0" d="M50,202.7v20.05c0,14.86,11.84,27.14,26.71,27.14h7.4c3.08,12.03,12.52,21.4,24.55,24.55
	c18.32,4.75,37.01-6.23,41.76-24.55h103.62c3.08,12.03,12.52,21.4,24.55,24.55c18.32,4.75,37.01-6.23,41.76-24.55h3.95
	c14.86,0,26.71-12.27,26.71-27.14v-17.58c0-12.09-8.08-22.76-19.74-25.97l-45.95-12.58l-27.57-36.08
	c-6.41-8.39-16.41-13.26-26.95-13.26h-90.92c-11.66-0.06-22.51,5.92-28.68,15.79l-21.34,34.05l-24.18,11.04
	C56.11,182.53,49.94,192.15,50,202.7z M265.33,241.19L265.33,241.19c0-12.09,9.81-21.9,21.9-21.9s21.9,9.81,21.9,21.9
	c0,12.09-9.81,21.9-21.9,21.9C275.07,263.02,265.26,253.22,265.33,241.19z M117.29,263.09c-12.15-0.06-21.96-9.87-21.9-21.9l0,0
	c0-12.09,9.81-21.9,21.9-21.9s21.9,9.81,21.9,21.9C139.19,253.28,129.38,263.09,117.29,263.09L117.29,263.09z M62.4,222.75V202.7
	c-0.06-5.74,3.27-10.92,8.45-13.32l25.78-11.78c1.05-0.49,2.04-1.3,2.65-2.34l22.33-35.65c3.89-6.29,10.86-10.05,18.26-9.99h90.92
	c6.72,0,13.08,3.08,17.21,8.39l28.74,37.69c0.8,1.11,1.97,1.85,3.27,2.22l48.05,13.14c6.35,1.79,10.73,7.52,10.67,14.12v17.58
	c0,8.08-6.29,14.8-14.37,14.8h-3.08c-1.73-15.91-14.31-28.56-30.29-30.29c-18.81-2.1-35.77,11.47-37.81,30.29H151.34
	c-1.73-15.91-14.31-28.56-30.28-30.29c-18.81-2.1-35.77,11.47-37.81,30.29h-6.54c-8.08,0-14.37-6.72-14.37-14.8H62.4z"/>
</svg>
